<svg id="filled_outline" height="512" viewBox="0 0 512 512" width="512" xmlns="http://www.w3.org/2000/svg" data-name="filled outline"><path d="m328 400v88h-232.33008l-7.7998-119.36-23.87012 119.36h-40v-88l21.42993-135.73a31.99914 31.99914 0 0 1 17.30007-23.63l33.27-16.64 32-16 20.81006-31.21h54.37988l20.81006 31.21 32 16 33.27 16.64a31.99881 31.99881 0 0 1 17.2998 23.63z" fill="#556c80"/><path d="m488 352v112a24.00619 24.00619 0 0 1 -24 24h-192a24.00619 24.00619 0 0 1 -24-24v-112a24.00388 24.00388 0 0 1 24-24h192a24.021 24.021 0 0 1 24 24z" fill="#b1712c"/><path d="m480.56982 334.65-16.25976 37.96a31.99968 31.99968 0 0 1 -29.41016 19.39h-133.7998a31.99968 31.99968 0 0 1 -29.41016-19.39l-16.27-37.96a23.91683 23.91683 0 0 1 16.58006-6.65h192a23.9105 23.9105 0 0 1 16.56982 6.65z" fill="#c78640"/><path d="m240 216-64 96-64-96 16-8 20.81-31.21h54.38l20.81 31.21z" fill="#4976f2"/><path d="m144 264-32 32 64 88v-72z" fill="#718799"/><path d="m144 264h-56l8-40 16-8z" fill="#718799"/><path d="m208 264 32 32-64 88v-72z" fill="#8098ab"/><path d="m264 264h-56l32-48 16 8z" fill="#8098ab"/><path d="m208 264-16-32 8-16-13.07-39.211h-21.86l-13.07 39.211 8 16-16 32 32 48z" fill="#639aff"/><path d="m312 328h32v160h-32z" fill="#d69651"/><path d="m392 328h32v160h-32z" fill="#d69651"/><path d="m392 328v-8a16 16 0 0 0 -16-16h-16a16 16 0 0 0 -16 16v8h-24v-8a40 40 0 0 1 40-40h16.84277a39.15723 39.15723 0 0 1 39.15723 39.15723v8.84277z" fill="#b1712c"/><path d="m160 80h-40v-16a24 24 0 0 1 24-24h16z" fill="#a36522"/><path d="m232 80v56a56 56 0 0 1 -55.99994 56h-.00012a56 56 0 0 1 -55.99994-56v-56z" fill="#ffceb6"/><path d="m248 24v3.15562a95.26659 95.26659 0 0 1 -16 52.84438h-80v-40a16 16 0 0 1 16-16z" fill="#b1712c"/><path d="m160 160h8a24.0275 24.0275 0 0 0 24-24v-8h-16v8a8.00917 8.00917 0 0 1 -8 8h-8z"/><circle cx="152" cy="112" r="8"/><circle cx="200" cy="112" r="8"/><path d="m464 320h-40v-.84277a47.21051 47.21051 0 0 0 -47.15723-47.15723h-16.84277a47.99788 47.99788 0 0 0 -40.57422 22.40149l-4.95508-31.38294a40.07729 40.07729 0 0 0 -21.62207-29.53855l-63.37109-31.68506-11.625-17.438a63.85675 63.85675 0 0 0 22.14746-48.35694v-53.6604a102.90629 102.90629 0 0 0 16-55.18384v-3.15576a8.00008 8.00008 0 0 0 -8-8h-80a24.038 24.038 0 0 0 -22.62378 16h-1.37622a32.03635 32.03635 0 0 0 -32 32v72a63.85675 63.85675 0 0 0 22.14746 48.35693l-11.625 17.438-63.37109 31.68507a40.07729 40.07729 0 0 0 -21.62207 29.53855l-21.43164 135.73389a7.96334 7.96334 0 0 0 -.09766 1.24756v88a8.00008 8.00008 0 0 0 8 8h40a8.00041 8.00041 0 0 0 7.84473-6.43115l11.9917-59.95807 3.84716 58.9107a8.001 8.001 0 0 0 7.98341 7.47852h368.333a32.03635 32.03635 0 0 0 32-32v-112a32.03635 32.03635 0 0 0 -32-32zm6.66455 17.4729-13.70655 31.9812a23.971 23.971 0 0 1 -22.05859 14.5459h-2.89941v-48h32a15.87866 15.87866 0 0 1 6.66455 1.4729zm-86.66455 110.5271v32h-32v-32h8v-16h-8v-32h32v32h-8v16zm-80-64h-2.89941a23.971 23.971 0 0 1 -22.0586-14.5459l-13.70654-31.9811a15.88038 15.88038 0 0 1 6.66455-1.473h32zm16-48h16v96h-16zm32-16a8.00917 8.00917 0 0 1 8-8h16a8.00917 8.00917 0 0 1 8 8zm32 16v48h-32v-48zm16 0h16v96h-16zm-40-48h16.84277a31.1928 31.1928 0 0 1 31.15723 31.15723v.84277h-8a24.02718 24.02718 0 0 0 -24-24h-16a24.02718 24.02718 0 0 0 -24 24h-8a32.03635 32.03635 0 0 1 32-32zm-105.75879-32h-31.293l19.79053-29.68628 6.18384 3.09192zm-151.16382-26.59436 6.18384-3.09192 19.79053 29.68628h-31.293zm39.67945 47.15149 25.24316 37.86523v44.97608l-45.50977-62.5752zm10.47461-13.13184 13.92382-27.84765a8.00053 8.00053 0 0 0 0-7.15528l-6.51757-13.03613 5.38916-16.16785a64.01733 64.01733 0 0 0 19.94628 0l5.38916 16.16785-6.51757 13.03613a8.00053 8.00053 0 0 0 0 7.15528l13.92382 27.84765-22.76855 34.15283zm30.76855 50.99707 25.24316-37.86523 20.26661 20.26611-45.50977 62.5752zm33.34375-101.98486a7.99763 7.99763 0 0 0 3.07813 2.71777l7.895 3.94751-19.32666 28.98951-8.04588-16.09229 6.21093-12.42236a7.99843 7.99843 0 0 0 .43457-6.10743l-6.239-18.71716c1.08447-.46979 2.15039-.97326 3.20313-1.50036zm-57.34375-172.4375a8.00917 8.00917 0 0 1 8-8h71.86719a86.90746 86.90746 0 0 1 -12.26953 40h-67.59766zm-32 24a16.01833 16.01833 0 0 1 16-16v24h-16zm0 72v-48h96v48a48 48 0 0 1 -96 0zm6.65625 76.4375 12.78975-19.18481c1.05274.5271 2.11866 1.03057 3.20313 1.50036l-6.239 18.71716a7.99843 7.99843 0 0 0 .43457 6.10743l6.21096 12.42236-8.04589 16.09229-19.32666-28.98951 7.895-3.94751a7.99763 7.99763 0 0 0 3.07814-2.71777zm-38.73193 156.73413 7.92041-39.60278-15.68946-3.1377-30.71386 153.56885h-25.44141v-79.37207l21.334-135.11426a24.0447 24.0447 0 0 1 12.97364-17.72314l18.63965-9.31989-4.792 23.96051a8.00053 8.00053 0 0 0 7.84471 9.56885h36.68652l-18.34375 18.34326a8.00044 8.00044 0 0 0 -.8125 10.36231l63.99634 87.99487.00147.00207.00219.00306a7.97327 7.97327 0 0 0 .72925.85577c.0752.0777.156.14887.23438.22357a8.01307 8.01307 0 0 0 .62915.54114c.09131.07025.18139.13989.27588.20636a7.955 7.955 0 0 0 .843.52081c.04248.02271.0813.05011.12427.072a7.997 7.997 0 0 0 1.05762.43995c.0354.01208.06689.03112.10254.04272.06445.02087.13012.02747.19482.04669a7.97175 7.97175 0 0 0 .84058.20154c.10718.01965.21362.04181.321.057a7.97244 7.97244 0 0 0 1.1104.08688l.00586.00049.001-.00006.001.00006.00582-.00049a7.97737 7.97737 0 0 0 1.10986-.08685c.10815-.01526.21509-.0376.323-.05738a7.9885 7.9885 0 0 0 .83569-.20037c.06592-.01954.13281-.02625.19824-.04749.03638-.01184.06836-.03125.10474-.04358a7.99767 7.99767 0 0 0 1.053-.438c.04736-.02417.09009-.05438.137-.0794a7.958 7.958 0 0 0 .82983-.51264c.09644-.06781.18873-.139.28174-.21081a7.96139 7.96139 0 0 0 .62354-.53632c.07959-.07575.16162-.14795.238-.22681a7.99354 7.99354 0 0 0 .72827-.85473l.00219-.00306.00147-.00207 63.99634-87.99487a8.00044 8.00044 0 0 0 -.8125-10.36231l-18.34377-18.34331h36.68652a8.00053 8.00053 0 0 0 7.84473-9.56885l-4.792-23.96051 18.63965 9.31989a24.04709 24.04709 0 0 1 12.97362 17.72314l8.60353 54.48633h-35.26953a32.03635 32.03635 0 0 0 -32 32v112a31.79171 31.79171 0 0 0 4.30518 16h-141.144zm176.07568 110.82837a16.01833 16.01833 0 0 1 -16-16v-107.69086l8.335 19.4477a39.95506 39.95506 0 0 0 36.76559 24.24316h2.89941v32h-8v16h8v32zm48 0v-32h16v32zm80 0v-32h16v32zm64 0h-32v-32h8v-16h-8v-32h2.89941a39.95506 39.95506 0 0 0 36.76559-24.24316l8.335-19.4477v107.69086a16.01833 16.01833 0 0 1 -16 16z"/></svg>